<svg clip-rule="evenodd" fill-rule="evenodd" stroke-linejoin="round" stroke-miterlimit="2" viewBox="0 0 214 263" xmlns="http://www.w3.org/2000/svg"><g transform="matrix(.397855 0 0 .397855 -51.7309 -27.4237)"><path d="m376.733 720.49c7.38 4.307 11.07 6.46 16.277 7.577 4.043.866 9.937.866 13.98 0 5.207-1.117 8.897-3.27 16.277-7.577 64.933-37.88 243.4-156.88 243.4-320.493v-159.415c0-26.65 0-39.975-4.36-51.43-3.85-10.118-10.107-19.147-18.23-26.305-9.194-8.103-21.67-12.782-46.624-22.14l-178.726-67.022c-6.93-2.599-10.394-3.898-13.96-4.413-3.16-.457-6.374-.457-9.534 0-3.566.515-7.03 1.814-13.96 4.413l-178.726 67.022c-24.954 9.358-37.43 14.037-46.625 22.14-8.123 7.158-14.38 16.187-18.23 26.305-4.359 11.455-4.359 24.78-4.359 51.43v159.415c0 163.613 178.466 282.613 243.4 320.493z" fill="#fff" fill-rule="nonzero"/><path d="m376.733 720.49c-64.934-37.88-243.4-156.88-243.4-320.493v-159.415c0-26.65 0-39.975 4.359-51.43 3.85-10.118 10.107-19.147 18.23-26.305 9.195-8.103 21.671-12.782 46.625-22.14l178.726-67.022c6.93-2.599 10.394-3.898 13.96-4.413 3.16-.457 6.374-.457 9.534 0 3.566.515 7.03 1.814 13.96 4.413l178.726 67.022c24.954 9.358 37.43 14.037 46.624 22.14 8.123 7.158 14.38 16.187 18.23 26.305 4.36 11.455 4.36 24.78 4.36 51.43v159.415c0 163.613-178.467 282.613-243.4 320.493-7.38 4.307-11.07 6.46-16.277 7.577-4.043.866-9.937.866-13.98 0-5.207-1.117-8.897-3.27-16.277-7.577zm10.134-17.368c4.779 2.789 6.987 4.56 10.358 5.284 1.605.344 3.945.344 5.55 0 3.371-.724 5.579-2.495 10.358-5.284 37.688-21.986 115.004-72.116 170.755-142.974 35.692-45.364 62.671-99.354 62.671-160.151v-159.415c0-22.915.704-34.429-3.045-44.278-2.689-7.066-7.059-13.373-12.732-18.372-7.905-6.967-18.932-10.351-40.389-18.397l-178.726-67.023c-4.889-1.833-7.258-2.976-9.774-3.339l-.004-.001c-1.252-.181-2.526-.181-3.778 0l-.004.001c-2.516.363-4.885 1.506-9.773 3.339l-178.727 67.023c-21.457 8.046-32.484 11.43-40.39 18.397-5.673 5-10.043 11.305-12.732 18.372-3.748 9.849-3.044 21.362-3.044 44.278v159.415c0 60.797 26.978 114.787 62.671 160.151 55.75 70.858 133.066 120.988 170.755 142.974z" fill="#ff2116"/></g><g fill-rule="nonzero" transform="matrix(1.55912356 0 0 1.55912356 154.076861 -569.601812)"><path d="m-66.352 456.642c-4.13-4.13.338-9.804 12.462-15.829l7.629-3.791 2.972-6.503c1.634-3.576 4.074-9.412 5.421-12.968l2.45-6.465-1.688-4.785c-2.076-5.883-2.816-14.724-1.499-17.903 1.784-4.306 7.626-3.864 9.939.752 1.806 3.605 1.622 10.133-.52 18.367l-1.755 6.75 1.546 2.625c.851 1.443 3.335 4.871 5.521 7.617l4.108 5.111 5.112-.668c16.239-2.119 21.802 1.483 21.802 6.647 0 6.517-12.752 7.055-23.46-.466-2.41-1.692-4.064-3.373-4.064-3.373s-6.708 1.366-10.011 2.256c-3.41.919-5.11 1.495-10.104 3.18 0 0-1.753 2.545-2.894 4.395-4.248 6.882-9.208 12.585-12.75 14.661-3.966 2.324-8.124 2.483-10.217.39zm6.48-2.315c2.321-1.435 7.019-6.991 10.271-12.148l1.316-2.088-5.995 3.014c-9.259 4.656-13.495 9.043-11.293 11.698 1.238 1.491 2.718 1.367 5.701-.476zm60.145-16.883c2.271-1.59 1.941-4.795-.625-6.087-1.998-1.005-3.608-1.212-8.797-1.135-3.189.217-8.316.86-9.185 1.056 0 0 2.817 1.946 4.067 2.662 1.665.951 5.711 2.716 8.665 3.62 2.913.892 4.598.798 5.875-.116zm-24.183-10.051c-1.374-1.445-3.711-4.459-5.192-6.699-1.938-2.541-2.909-4.334-2.909-4.334s-1.416 4.555-2.578 7.296l-3.625 8.96-1.051 2.032s5.587-1.832 8.43-2.574c3.011-.787 9.121-1.988 9.121-1.988zm-7.794-31.254c.351-2.941.499-5.878-.446-7.359-2.621-2.865-5.784-.476-5.248 6.336.18 2.292.75 6.209 1.511 8.623l1.383 4.39.974-3.306c.536-1.819 1.358-5.727 1.826-8.684z" fill="#ff2116"/><path d="m-59.33 475.763h6.704c2.142 0 3.88.205 5.216.615 1.335.397 2.459 1.289 3.372 2.677.912 1.376 1.368 3.035 1.368 4.979 0 1.785-.37 3.319-1.11 4.601-.741 1.283-1.739 2.208-2.995 2.777-1.243.569-3.161.853-5.752.853h-2.321v10.571h-4.482zm4.482 3.471v9.441h2.222c1.983 0 3.352-.37 4.105-1.111.767-.74 1.151-1.943 1.151-3.61 0-1.242-.252-2.247-.754-3.014-.503-.78-1.058-1.256-1.666-1.428-.595-.186-1.541-.278-2.836-.278zm15.61-3.471h6.089c2.948 0 5.302.522 7.06 1.567 1.772 1.044 3.108 2.598 4.007 4.661.912 2.063 1.369 4.35 1.369 6.862 0 2.645-.41 5.005-1.23 7.081-.807 2.063-2.05 3.729-3.729 4.998-1.666 1.27-4.046 1.904-7.14 1.904h-6.426zm4.482 3.59v19.893h1.864c2.605 0 4.496-.899 5.673-2.697 1.177-1.811 1.765-4.225 1.765-7.239 0-6.638-2.479-9.957-7.438-9.957zm18.346-3.59h15.035v3.59h-10.552v8.092h8.449v3.59h-8.449v11.801h-4.483z" fill="#2c2c2c"/></g></svg>