<svg clip-rule="evenodd" fill-rule="evenodd" stroke-linecap="round" stroke-linejoin="round" viewBox="0 0 214 263" xmlns="http://www.w3.org/2000/svg"><g transform="matrix(1.4843 0 0 1.4843 151.79 -521.505)"><path d="m-83.999 351.347c-10.068 0-18.264 8.202-18.264 18.27v140.309c0 10.068 8.196 18.27 18.264 18.27h107.291c10.068 0 18.264-8.201 18.264-18.27v-115.373s.288-3.379-1.179-6.666c-1.375-3.082-3.615-5.226-3.615-5.226-.006-.008-.011-.016-.017-.023l-26.619-26.11c-.015-.015-.029-.03-.044-.044-.015-.015-2.273-2.164-5.642-3.61-3.967-1.702-8.055-1.522-8.055-1.522l.061-.006z" fill="#ff2116" fill-rule="nonzero"/><path d="m-83.999 357.348h80.445.061c.02 0 3.216.031 5.569 1.041 2.265.972 3.87 2.443 3.881 2.453 0 0 .011.011.011.011l26.553 26.049s1.6 1.689 2.375 3.427c.626 1.403.664 3.969.664 3.969-.002.043-.004.085-.005.128v115.5c0 6.849-5.415 12.269-12.263 12.269h-107.291c-6.848 0-12.263-5.42-12.263-12.269v-140.309c0-6.849 5.415-12.269 12.263-12.269z" fill="#f5f5f5" fill-rule="nonzero"/><path d="m376.733 720.49c7.38 4.307 11.07 6.46 16.277 7.577 4.043.866 9.937.866 13.98 0 5.207-1.117 8.897-3.27 16.277-7.577 64.933-37.88 243.4-156.88 243.4-320.493v-159.415c0-26.65 0-39.975-4.36-51.43-3.85-10.118-10.107-19.147-18.23-26.305-9.194-8.103-21.67-12.782-46.624-22.14l-178.726-67.022c-6.93-2.599-10.394-3.898-13.96-4.413-3.16-.457-6.374-.457-9.534 0-3.566.515-7.03 1.814-13.96 4.413l-178.726 67.022c-24.954 9.358-37.43 14.037-46.625 22.14-8.123 7.158-14.38 16.187-18.23 26.305-4.359 11.455-4.359 24.78-4.359 51.43v159.415c0 163.613 178.466 282.613 243.4 320.493z" fill="none" stroke="#ff2116" stroke-width="55.03" transform="matrix(.110182 0 0 .110182 -74.4257 377.818)"/><path d="m-59.33 475.763h6.704c2.142 0 3.88.205 5.216.615 1.335.397 2.459 1.289 3.372 2.677.912 1.376 1.368 3.035 1.368 4.979 0 1.785-.37 3.319-1.11 4.601-.741 1.283-1.739 2.208-2.995 2.777-1.243.569-3.161.853-5.752.853h-2.321v10.571h-4.482zm4.482 3.471v9.441h2.222c1.983 0 3.352-.37 4.105-1.111.767-.74 1.151-1.943 1.151-3.61 0-1.242-.252-2.247-.754-3.014-.503-.78-1.058-1.256-1.666-1.428-.595-.186-1.541-.278-2.836-.278zm15.61-3.471h6.089c2.948 0 5.302.522 7.06 1.567 1.772 1.044 3.108 2.598 4.007 4.661.912 2.063 1.369 4.35 1.369 6.862 0 2.645-.41 5.005-1.23 7.081-.807 2.063-2.05 3.729-3.729 4.998-1.666 1.27-4.046 1.904-7.14 1.904h-6.426zm4.482 3.59v19.893h1.864c2.605 0 4.496-.899 5.673-2.697 1.177-1.811 1.765-4.225 1.765-7.239 0-6.638-2.479-9.957-7.438-9.957zm18.346-3.59h15.035v3.59h-10.552v8.092h8.449v3.59h-8.449v11.801h-4.483z" fill="#2c2c2c" fill-rule="nonzero"/></g></svg>